<svg width="226" height="78" viewBox="0 0 226 78" fill="none" xmlns="http://www.w3.org/2000/svg">
<rect x="0.5" y="0.5" width="225" height="77" rx="38.5" stroke="#DDDDDD" stroke-opacity="0.5"/>
<path d="M66.0601 32.364C67.3921 32.364 68.5561 32.628 69.5521 33.156C70.5481 33.684 71.3161 34.428 71.8561 35.388C72.4081 36.336 72.6841 37.434 72.6841 38.682C72.6841 39.918 72.4081 41.016 71.8561 41.976C71.3161 42.936 70.5421 43.68 69.5341 44.208C68.5381 44.736 67.3801 45 66.0601 45H61.3261V32.364H66.0601ZM65.8621 42.336C67.0261 42.336 67.9321 42.018 68.5801 41.382C69.2281 40.746 69.5521 39.846 69.5521 38.682C69.5521 37.518 69.2281 36.612 68.5801 35.964C67.9321 35.316 67.0261 34.992 65.8621 34.992H64.4041V42.336H65.8621ZM76.7622 34.83V37.386H80.8842V39.762H76.7622V42.534H81.4242V45H73.6842V32.364H81.4242V34.83H76.7622ZM87.2745 45.126C86.3505 45.126 85.5225 44.976 84.7905 44.676C84.0585 44.376 83.4705 43.932 83.0265 43.344C82.5945 42.756 82.3665 42.048 82.3425 41.22H85.6185C85.6665 41.688 85.8285 42.048 86.1045 42.3C86.3805 42.54 86.7405 42.66 87.1845 42.66C87.6405 42.66 88.0005 42.558 88.2645 42.354C88.5285 42.138 88.6605 41.844 88.6605 41.472C88.6605 41.16 88.5525 40.902 88.3365 40.698C88.1325 40.494 87.8745 40.326 87.5625 40.194C87.2625 40.062 86.8305 39.912 86.2665 39.744C85.4505 39.492 84.7845 39.24 84.2685 38.988C83.7525 38.736 83.3085 38.364 82.9365 37.872C82.5645 37.38 82.3785 36.738 82.3785 35.946C82.3785 34.77 82.8045 33.852 83.6565 33.192C84.5085 32.52 85.6185 32.184 86.9865 32.184C88.3785 32.184 89.5005 32.52 90.3525 33.192C91.2045 33.852 91.6605 34.776 91.7205 35.964H88.3905C88.3665 35.556 88.2165 35.238 87.9405 35.01C87.6645 34.77 87.3105 34.65 86.8785 34.65C86.5065 34.65 86.2065 34.752 85.9785 34.956C85.7505 35.148 85.6365 35.43 85.6365 35.802C85.6365 36.21 85.8285 36.528 86.2125 36.756C86.5965 36.984 87.1965 37.23 88.0125 37.494C88.8285 37.77 89.4885 38.034 89.9925 38.286C90.5085 38.538 90.9525 38.904 91.3245 39.384C91.6965 39.864 91.8825 40.482 91.8825 41.238C91.8825 41.958 91.6965 42.612 91.3245 43.2C90.9645 43.788 90.4365 44.256 89.7405 44.604C89.0445 44.952 88.2225 45.126 87.2745 45.126ZM92.5347 38.664C92.5347 37.416 92.8047 36.306 93.3447 35.334C93.8847 34.35 94.6347 33.588 95.5947 33.048C96.5667 32.496 97.6647 32.22 98.8887 32.22C100.389 32.22 101.673 32.616 102.741 33.408C103.809 34.2 104.523 35.28 104.883 36.648H101.499C101.247 36.12 100.887 35.718 100.419 35.442C99.9627 35.166 99.4407 35.028 98.8527 35.028C97.9047 35.028 97.1367 35.358 96.5487 36.018C95.9607 36.678 95.6667 37.56 95.6667 38.664C95.6667 39.768 95.9607 40.65 96.5487 41.31C97.1367 41.97 97.9047 42.3 98.8527 42.3C99.4407 42.3 99.9627 42.162 100.419 41.886C100.887 41.61 101.247 41.208 101.499 40.68H104.883C104.523 42.048 103.809 43.128 102.741 43.92C101.673 44.7 100.389 45.09 98.8887 45.09C97.6647 45.09 96.5667 44.82 95.5947 44.28C94.6347 43.728 93.8847 42.966 93.3447 41.994C92.8047 41.022 92.5347 39.912 92.5347 38.664ZM113.914 42.768H109.198L108.442 45H105.22L109.792 32.364H113.356L117.928 45H114.67L113.914 42.768ZM113.122 40.392L111.556 35.766L110.008 40.392H113.122ZM125.043 45L122.415 40.23H121.677V45H118.599V32.364H123.765C124.761 32.364 125.607 32.538 126.303 32.886C127.011 33.234 127.539 33.714 127.887 34.326C128.235 34.926 128.409 35.598 128.409 36.342C128.409 37.182 128.169 37.932 127.689 38.592C127.221 39.252 126.525 39.72 125.601 39.996L128.517 45H125.043ZM121.677 38.052H123.585C124.149 38.052 124.569 37.914 124.845 37.638C125.133 37.362 125.277 36.972 125.277 36.468C125.277 35.988 125.133 35.61 124.845 35.334C124.569 35.058 124.149 34.92 123.585 34.92H121.677V38.052ZM138.009 36.36C137.781 35.94 137.451 35.622 137.019 35.406C136.599 35.178 136.101 35.064 135.525 35.064C134.529 35.064 133.731 35.394 133.131 36.054C132.531 36.702 132.231 37.572 132.231 38.664C132.231 39.828 132.543 40.74 133.167 41.4C133.803 42.048 134.673 42.372 135.777 42.372C136.533 42.372 137.169 42.18 137.685 41.796C138.213 41.412 138.597 40.86 138.837 40.14H134.931V37.872H141.627V40.734C141.399 41.502 141.009 42.216 140.457 42.876C139.917 43.536 139.227 44.07 138.387 44.478C137.547 44.886 136.599 45.09 135.543 45.09C134.295 45.09 133.179 44.82 132.195 44.28C131.223 43.728 130.461 42.966 129.909 41.994C129.369 41.022 129.099 39.912 129.099 38.664C129.099 37.416 129.369 36.306 129.909 35.334C130.461 34.35 131.223 33.588 132.195 33.048C133.167 32.496 134.277 32.22 135.525 32.22C137.037 32.22 138.309 32.586 139.341 33.318C140.385 34.05 141.075 35.064 141.411 36.36H138.009ZM150.478 42.768H145.762L145.006 45H141.784L146.356 32.364H149.92L154.492 45H151.234L150.478 42.768ZM149.686 40.392L148.12 35.766L146.572 40.392H149.686ZM161.608 45L158.98 40.23H158.242V45H155.164V32.364H160.33C161.326 32.364 162.172 32.538 162.868 32.886C163.576 33.234 164.104 33.714 164.452 34.326C164.8 34.926 164.974 35.598 164.974 36.342C164.974 37.182 164.734 37.932 164.254 38.592C163.786 39.252 163.09 39.72 162.166 39.996L165.082 45H161.608ZM158.242 38.052H160.15C160.714 38.052 161.134 37.914 161.41 37.638C161.698 37.362 161.842 36.972 161.842 36.468C161.842 35.988 161.698 35.61 161.41 35.334C161.134 35.058 160.714 34.92 160.15 34.92H158.242V38.052Z" fill="white"/>
</svg>
