<svg width="75" height="84" viewBox="0 0 75 84" fill="none" xmlns="http://www.w3.org/2000/svg">
<g clip-path="url(#clip0_233_266)">
<path d="M6.46156 28.7778C6.46156 28.7778 9.97755 10.5 18.5722 6.22225C27.1668 1.94448 52.5601 -3.88886 65.0614 7.00003C77.5627 17.8889 75.6094 38.1111 68.9681 47.0556C63.4284 54.5223 61.9673 67.4023 65.038 77.56C65.8896 80.3834 63.7878 83.2222 60.8266 83.2222H36.9726C35.152 83.2222 33.5191 82.1022 32.8627 80.4145C32.1596 78.5945 31.0422 76.1911 29.4952 74.1145C28.5342 72.8234 26.7918 72.3878 25.3385 73.0956C22.1507 74.6434 16.2829 77.1634 12.7122 76.6189C7.63356 75.8411 11.1495 68.8411 9.58689 66.1189C8.02422 63.3967 5.28956 63.0078 7.24289 61.0634C9.19622 59.1189 4.11757 58.73 6.07089 56.3967L6.6022 55.3467C6.96161 54.6311 6.68815 53.76 5.98495 53.3711L2.33613 51.3723C0.781281 50.5167 0.304669 48.5178 1.31259 47.0556C4.10975 43.0034 9.19622 37.7223 9.97755 34.6111C10.4542 32.7211 6.46156 31.8889 6.46156 28.7778Z" stroke="white" stroke-width="2" stroke-miterlimit="10" stroke-linecap="round"/>
<path d="M25.112 73.22C25.112 73.22 38.0665 68.1178 40.0198 65.7845C41.9731 63.4511 40.8011 59.5623 40.8011 59.5623" stroke="white" stroke-width="2" stroke-miterlimit="10" stroke-linecap="round"/>
<path d="M24.7448 20.6888C24.7448 20.6888 50.1146 22.1044 51.7476 28.7233C53.3806 35.3422 43.1607 41.65 46.4423 48.6888C49.7239 55.7277 55.8886 56.5444 53.6071 78.2366" stroke="#ED1C24" stroke-width="3" stroke-miterlimit="10" stroke-linecap="round"/>
<path d="M33.3863 29.2755C33.3863 29.2755 36.6523 24.0489 39.9104 22.6644" stroke="#ED1C24" stroke-width="3" stroke-miterlimit="10" stroke-linecap="round"/>
<path d="M32.519 15.6801C32.519 15.6801 34.0036 20.0667 36.6445 22.0501" stroke="#ED1C24" stroke-width="3" stroke-miterlimit="10" stroke-linecap="round"/>
<path d="M46.583 15.0189C46.583 15.0189 45.1453 20.3 46.583 24.57" stroke="#ED1C24" stroke-width="3" stroke-miterlimit="10" stroke-linecap="round"/>
<path d="M51.4507 27.9689C51.4507 27.9689 52.9977 23.0689 56.9434 21.35" stroke="#ED1C24" stroke-width="3" stroke-miterlimit="10" stroke-linecap="round"/>
<path d="M51.1616 33.6156C51.1616 33.6156 55.3026 34.4012 57.4044 36.7189" stroke="#ED1C24" stroke-width="3" stroke-miterlimit="10" stroke-linecap="round"/>
<path d="M35.6287 33.1723C35.6287 30.595 33.5298 28.5056 30.9407 28.5056C28.3516 28.5056 26.2527 30.595 26.2527 33.1723C26.2527 35.7496 28.3516 37.8389 30.9407 37.8389C33.5298 37.8389 35.6287 35.7496 35.6287 33.1723Z" stroke="#ED1C24" stroke-width="3" stroke-miterlimit="10" stroke-linecap="round"/>
<path d="M65.2958 40.3356C65.2958 37.7583 63.197 35.6689 60.6078 35.6689C58.0187 35.6689 55.9199 37.7583 55.9199 40.3356C55.9199 42.9129 58.0187 45.0023 60.6078 45.0023C63.197 45.0023 65.2958 42.9129 65.2958 40.3356Z" stroke="#ED1C24" stroke-width="3" stroke-miterlimit="10" stroke-linecap="round"/>
<path d="M66.1944 19.7945C66.1944 17.2171 64.0955 15.1278 61.5064 15.1278C58.9173 15.1278 56.8184 17.2171 56.8184 19.7945C56.8184 22.3718 58.9173 24.4611 61.5064 24.4611C64.0955 24.4611 66.1944 22.3718 66.1944 19.7945Z" stroke="#ED1C24" stroke-width="3" stroke-miterlimit="10" stroke-linecap="round"/>
<path d="M52.443 10.4611C52.443 7.88377 50.3441 5.79443 47.755 5.79443C45.1659 5.79443 43.067 7.88377 43.067 10.4611C43.067 13.0384 45.1659 15.1278 47.755 15.1278C50.3441 15.1278 52.443 13.0384 52.443 10.4611Z" stroke="#ED1C24" stroke-width="3" stroke-miterlimit="10" stroke-linecap="round"/>
<path d="M36.5272 11.0133C36.5272 8.43602 34.4283 6.34668 31.8392 6.34668C29.2501 6.34668 27.1512 8.43602 27.1512 11.0133C27.1512 13.5907 29.2501 15.68 31.8392 15.68C34.4283 15.68 36.5272 13.5907 36.5272 11.0133Z" stroke="#ED1C24" stroke-width="3" stroke-miterlimit="10" stroke-linecap="round"/>
<path d="M24.5338 19.9889C24.5338 17.4116 22.4349 15.3223 19.8458 15.3223C17.2567 15.3223 15.1578 17.4116 15.1578 19.9889C15.1578 22.5663 17.2567 24.6556 19.8458 24.6556C22.4349 24.6556 24.5338 22.5663 24.5338 19.9889Z" stroke="#ED1C24" stroke-width="3" stroke-miterlimit="10" stroke-linecap="round"/>
</g>
<defs>
<clipPath id="clip0_233_266">
<rect width="75" height="84" fill="white"/>
</clipPath>
</defs>
</svg>
