<svg width="62" height="63" viewBox="0 0 62 63" fill="none" xmlns="http://www.w3.org/2000/svg">
<g clip-path="url(#clip0_464_20)">
<path d="M36.3717 60.201C34.6331 61.066 32.8453 61.7352 31.0082 62.184C15.0244 58.2669 2.1077 37.7022 0.861135 12.3308C0.844733 11.9473 0.82833 11.5719 0.820129 11.1883C5.03547 11.4413 9.52965 11.0251 14.0566 9.83365C20.8061 8.05463 26.6371 4.83119 31.0082 0.816162C35.3794 4.83935 41.2021 8.05463 47.9516 9.83365C52.4786 11.0251 56.9646 11.4413 61.1799 11.1883C61.1717 11.5637 61.1553 11.9473 61.1389 12.3308C60.6551 22.2215 58.3998 31.3777 54.8815 39.1058" stroke="white" stroke-width="1.5" stroke-linecap="round" stroke-linejoin="round"/>
<path d="M45.5323 37.7756C38.9468 37.7756 33.6079 43.0882 33.6079 49.6412C33.6079 56.1942 38.9468 61.5067 45.5323 61.5067C52.1177 61.5067 57.4566 56.1942 57.4566 49.6412C57.4566 43.0882 52.1177 37.7756 45.5323 37.7756ZM52.4949 51.004C52.4949 51.8527 51.7979 52.5382 50.9531 52.5382H49.0177C48.6979 52.5382 48.4436 52.7912 48.4436 53.1094V55.0354C48.4436 55.8841 47.7465 56.5695 46.9018 56.5695H44.1709C43.318 56.5695 42.6291 55.8759 42.6291 55.0354V53.1094C42.6291 52.7912 42.3748 52.5382 42.055 52.5382H40.1195C39.2666 52.5382 38.5778 51.8445 38.5778 51.004V48.2865C38.5778 47.4378 39.2748 46.7523 40.1195 46.7523H42.055C42.3748 46.7523 42.6291 46.4993 42.6291 46.1811V44.2552C42.6291 43.4065 43.3262 42.721 44.1709 42.721H46.9018C47.7547 42.721 48.4436 43.4146 48.4436 44.2552V46.1811C48.4436 46.4993 48.6979 46.7523 49.0177 46.7523H50.9531C51.8061 46.7523 52.4949 47.446 52.4949 48.2865V51.004Z" fill="#FF0000"/>
</g>
<defs>
<clipPath id="clip0_464_20">
<rect width="62" height="63" fill="white"/>
</clipPath>
</defs>
</svg>
