<svg width="55" height="82" viewBox="0 0 55 82" fill="none" xmlns="http://www.w3.org/2000/svg">
<g clip-path="url(#clip0_233_282)">
<path d="M42.7119 26.5821L49.2835 38.3355L49.2989 38.3511L51.9723 43.1401L51.9877 43.1558C53.4361 46.4971 54.2373 50.1828 54.2373 54.0719C54.2373 69.3075 41.8798 81.6165 26.7874 81.2096C12.5039 80.8262 0.924501 68.8771 0.778122 54.3614C0.739601 50.3706 1.54083 46.5832 3.02774 43.1558L5.71649 38.3511L26.3328 1.47109C26.849 0.547722 28.1587 0.547722 28.6672 1.47109L35.7704 14.1635" stroke="white" stroke-width="2" stroke-miterlimit="10" stroke-linecap="round"/>
<path d="M29.3606 26.0579L14.3837 50.8245H26.4099V67.4765L39.9075 43.5706H29.1911L29.3606 26.0579Z" stroke="#ED1C24" stroke-width="3" stroke-linecap="round" stroke-linejoin="round"/>
<path d="M38.4592 19.1404L39.792 21.5271" stroke="white" stroke-width="2" stroke-miterlimit="10" stroke-linecap="round"/>
</g>
<defs>
<clipPath id="clip0_233_282">
<rect width="55" height="82" fill="white"/>
</clipPath>
</defs>
</svg>
