<svg width="77" height="73" viewBox="0 0 77 73" fill="none" xmlns="http://www.w3.org/2000/svg">
<g clip-path="url(#clip0_233_287)">
<path d="M20.9865 47.1389C21.3065 48.5462 22.8831 49.269 24.1786 48.6C26.9024 47.1851 31.6008 45.2242 36.6816 45.2626C41.138 45.2934 44.4003 46.1854 46.3983 46.9621C47.8967 47.5465 49.5825 47.485 51.003 46.7467C53.8594 45.2549 59.1041 43.194 64.8873 44.2475C73.566 45.8317 76.0947 52.568 76.2039 59.0198C76.3132 65.2486 69.4686 77.6985 51.6429 69.5549C50.3786 68.9782 48.9347 68.8859 47.608 69.3165C41.2706 71.3851 21.3299 76.4066 3.73061 64.7872C3.04381 64.3335 2.57553 63.626 2.44285 62.8186C1.39704 56.3745 -2.74719 26.2071 7.7968 7.27461C8.56165 5.90581 9.81818 4.86768 11.3089 4.35246L21.1895 0.922774C22.2509 0.55366 23.4372 0.868945 24.1708 1.70714L29.7901 8.17433L29.0643 14.8338C28.9472 15.9103 28.1902 16.8178 27.1365 17.1407L22.3836 18.5864C20.2451 19.2324 18.8013 21.1933 18.8247 23.3926C18.9027 28.937 19.2773 39.5336 20.9865 47.1389Z" stroke="white" stroke-width="2" stroke-miterlimit="10" stroke-linecap="round"/>
<path d="M22.0323 11.4041C22.0323 11.4041 25.9971 9.14324 29.7901 8.17432" stroke="white" stroke-width="2" stroke-miterlimit="10" stroke-linecap="round"/>
<path d="M37.3215 51.8835V66.379" stroke="#ED1C24" stroke-width="3" stroke-linecap="round" stroke-linejoin="round"/>
<path d="M44.6734 59.1274H29.9618" stroke="#ED1C24" stroke-width="3" stroke-linecap="round" stroke-linejoin="round"/>
<path d="M38.5 26.2379V41.0102" stroke="#ED1C24" stroke-width="3" stroke-linecap="round" stroke-linejoin="round"/>
<path d="M32.9744 30.9979L38.5 25.5535L44.0257 30.9979" stroke="#ED1C24" stroke-width="3" stroke-linecap="round" stroke-linejoin="round"/>
<path d="M60.587 21.7623V39.6182" stroke="#ED1C24" stroke-width="3" stroke-linecap="round" stroke-linejoin="round"/>
<path d="M55.0613 26.5224L60.587 21.078L66.1126 26.5224" stroke="#ED1C24" stroke-width="3" stroke-linecap="round" stroke-linejoin="round"/>
</g>
<defs>
<clipPath id="clip0_233_287">
<rect width="77" height="73" fill="white"/>
</clipPath>
</defs>
</svg>
