<svg width="22" height="64" viewBox="0 0 22 64" fill="none" xmlns="http://www.w3.org/2000/svg">
<path d="M9.56999 2.96997H9.25999C6.55999 2.96997 4.37 5.23997 4.37 8.03997V25.13C4.37 27.93 6.55999 30.2 9.25999 30.2H9.56999C12.27 30.2 14.46 27.93 14.46 25.13V8.03997C14.46 5.23997 12.27 2.96997 9.56999 2.96997Z" stroke="white" stroke-width="4" stroke-miterlimit="10"/>
<path d="M11.27 40.2899H9.56999C6.69999 40.2899 4.37 42.8099 4.37 45.9099V46.7699C4.37 49.8699 6.69999 52.3899 9.56999 52.3899H11.27C14.14 52.3899 16.47 49.8699 16.47 46.7699V45.9099C16.47 42.8099 14.14 40.2899 11.27 40.2899Z" stroke="white" stroke-width="4" stroke-miterlimit="10"/>
<path d="M9.40998 40.29H7.66998C4.72998 40.29 2.34998 38.19 2.34998 35.61V34.89C2.34998 32.3 4.72998 30.21 7.66998 30.21H9.40998" stroke="white" stroke-width="4" stroke-miterlimit="10"/>
<path d="M14.46 9.01997C14.46 5.67997 16.72 2.96997 19.5 2.96997" stroke="white" stroke-width="4" stroke-miterlimit="10"/>
<path d="M21.52 59.45H0.339966V63.4799H21.52V59.45Z" fill="#F4F4F4"/>
</svg>
