<svg width="54" height="64" viewBox="0 0 54 64" fill="none" xmlns="http://www.w3.org/2000/svg">
<g clip-path="url(#clip0_400_479)">
<path d="M29.41 14.81L27.74 15.23L25.48 16.3L23.39 18.45L22.58 21.06L22.68 23.73L23.91 25.73L25.58 27.63L27.61 28.32L29.58 28.63L29.49 36.96L27.16 37.07L26.75 32.76L25.45 32.35L24.02 31.81L23.7 31.5L20.28 34.32L18.17 32.36L16.88 30.82L19.84 28.11L19.35 26.76L18.44 24.46L14.23 23.95L14.13 19.49L17.6 19.41L18.3 19.24L18.95 17.81L19.68 16L16.99 12.61L20.21 9.20996L23.28 11.99L24.55 11.51L26.27 10.9L26.86 10.5L27.16 6.45996H30.33L29.67 8.03996L30 12.15V14.49L29.41 14.81Z" fill="#FF0000"/>
<path d="M47.68 55.0101L47.41 45.8201C47.34 43.4401 47.79 41.0701 48.76 38.9001C52.31 30.8701 59.53 9.04011 36.84 2.11011C31.4 0.450108 25.53 0.620108 20.31 2.90011C15.58 4.97011 10.68 8.98011 9.17 16.7601C9.1 17.1201 9.07 17.4801 9.04 17.8501C8.98 18.9101 8.62 21.7101 6.74 25.1001C5.08 28.0801 2.77 30.6601 1.49 31.9701C0.939997 32.5401 0.839997 33.4001 1.25 34.0701C1.51 34.4901 1.94 34.7801 2.43 34.8701L5.32 35.3601C5.79 35.4401 6.06 35.9301 5.88 36.3701L5.02 38.5001C4.8 39.0501 5.08 39.6601 5.64 39.8501C6.09 40.0001 6.38 40.4501 6.33 40.9301L6.19 42.2601C6.15 42.6601 6.34 43.0501 6.69 43.2501L7.68 43.8301C8.26 44.1701 8.56 44.8501 8.42 45.5101C8 47.5001 7.49 51.6301 10.27 52.6101C13.97 53.9301 18.5 50.7101 21.52 52.9601C24.54 55.2101 22.84 62.6301 22.84 62.6301" stroke="white" stroke-width="1.5" stroke-miterlimit="10" stroke-linecap="round"/>
<path d="M30.49 6.45996H27.16L26.85 10.85C25.69 11.13 24.6 11.59 23.61 12.19L20.28 9.30996L16.99 12.6L19.87 15.93C19.26 16.92 18.8 18.01 18.53 19.17L14.14 19.48V24.14L18.53 24.45C18.81 25.61 19.27 26.7 19.87 27.69L16.99 31.02L20.28 34.31L23.61 31.43C24.6 32.04 25.69 32.5 26.85 32.77L27.16 37.16H30.49M29.49 28.62C28.71 28.62 27.97 28.49 27.27 28.25C27 28.16 26.75 28.05 26.5 27.93C25.14 27.26 24.03 26.16 23.36 24.79C23.24 24.54 23.13 24.28 23.04 24.02C22.8 23.33 22.67 22.58 22.67 21.8C22.67 21.02 22.8 20.28 23.04 19.58C23.13 19.31 23.24 19.06 23.36 18.81C24.03 17.45 25.13 16.34 26.5 15.67C26.75 15.55 27 15.44 27.27 15.35C27.97 15.11 28.71 14.98 29.49 14.98" stroke="#FF0000" stroke-miterlimit="10"/>
<path d="M36.02 9.82994V8.44994C36.02 6.78994 34.67 5.43994 33.01 5.43994C31.35 5.43994 30 6.78994 30 8.44994V36.9099C30 36.9099 36.08 40.2999 38.06 34.2199" stroke="white" stroke-width="1.5" stroke-linecap="round" stroke-linejoin="round"/>
<path d="M37.1 15.69C39.21 15.69 40.93 13.98 40.93 11.86C40.93 9.74003 39.22 8.03003 37.1 8.03003C36.75 8.03003 36.42 8.08003 36.1 8.16003" stroke="white" stroke-width="1.5" stroke-linecap="round" stroke-linejoin="round"/>
<path d="M39.87 20.6399C40.2 20.7399 40.56 20.7899 40.92 20.7899C43.03 20.7899 44.73 19.0799 44.73 16.9799C44.73 14.8799 43.02 13.1699 40.92 13.1699C40.85 13.1699 40.78 13.1699 40.71 13.1699" stroke="white" stroke-width="1.5" stroke-linecap="round" stroke-linejoin="round"/>
<path d="M39.07 25.21C39.73 25.99 40.72 26.49 41.82 26.49C43.81 26.49 45.43 24.87 45.43 22.88C45.43 21.55 44.71 20.38 43.63 19.76" stroke="white" stroke-width="1.5" stroke-linecap="round" stroke-linejoin="round"/>
<path d="M42.3 30.92C43.85 30.77 45.06 29.47 45.06 27.88C45.06 27.03 44.71 26.26 44.15 25.71" stroke="white" stroke-width="1.5" stroke-linecap="round" stroke-linejoin="round"/>
<path d="M36.76 36.7599C37.17 36.8899 37.61 36.9599 38.07 36.9599C40.54 36.9599 42.53 34.9599 42.53 32.4999C42.53 30.8899 41.67 29.4699 40.39 28.6899" stroke="white" stroke-width="1.5" stroke-linecap="round" stroke-linejoin="round"/>
<path d="M30 30.1899C30.01 31.9999 31.48 33.4599 33.29 33.4599C35.1 33.4599 36.58 31.9899 36.58 30.1699" stroke="white" stroke-width="1.5" stroke-linecap="round" stroke-linejoin="round"/>
<path d="M30 25.73C30 26.98 31.01 27.99 32.26 27.99C33.51 27.99 34.52 26.98 34.52 25.73" stroke="white" stroke-width="1.5" stroke-linecap="round" stroke-linejoin="round"/>
<path d="M37.71 28.0298C38.2 27.3598 38.48 26.5298 38.48 25.6398C38.48 23.3898 36.66 21.5698 34.41 21.5698C33.98 21.5698 33.56 21.6398 33.17 21.7598" stroke="white" stroke-width="1.5" stroke-linecap="round" stroke-linejoin="round"/>
<path d="M34.58 19.2401C34.27 18.1201 33.25 17.3101 32.04 17.3101C31.22 17.3101 30.49 17.6801 30.01 18.2701" stroke="white" stroke-width="1.5" stroke-linecap="round" stroke-linejoin="round"/>
<path d="M30 11.75C30 13.08 31.08 14.15 32.4 14.15C33.72 14.15 34.8 13.07 34.8 11.75" stroke="white" stroke-width="1.5" stroke-linecap="round" stroke-linejoin="round"/>
</g>
<defs>
<clipPath id="clip0_400_479">
<rect width="53.72" height="63.63" fill="white"/>
</clipPath>
</defs>
</svg>
