<svg width="68" height="67" viewBox="0 0 68 67" fill="none" xmlns="http://www.w3.org/2000/svg">
<g clip-path="url(#clip0_400_533)">
<path d="M45.91 63.8201C45.72 63.9201 45.57 64.0701 45.46 64.2601L45.39 64.3801C44.7 65.6101 43.11 65.9901 41.94 65.1901C41.77 65.0701 41.57 65.0101 41.36 64.9901C24.21 64.1101 16.83 53.5101 14.38 48.7801C14.08 48.8201 13.77 48.8301 13.46 48.8301C7.86999 48.8701 2.78999 45.4301 1.13999 40.0801C-1.61001 31.2201 4.92999 23.1001 13.36 23.1001C19.86 23.1001 25.23 27.9101 26.1 34.1701C37.95 36.6501 41.52 44.1401 41.52 44.1401L47.81 28.4901C49.41 29.0801 51.13 29.4001 52.92 29.4001C54.71 29.4001 56.29 29.1101 57.83 28.5601L58.03 28.7901C61.28 54.3901 48 62.6801 45.91 63.8201Z" stroke="white" stroke-width="2" stroke-linecap="round" stroke-linejoin="round"/>
<path d="M19.48 42.21C19.48 42.21 22.96 51.21 34.55 51.76" stroke="white" stroke-width="2" stroke-linecap="round" stroke-linejoin="round"/>
<path d="M52.06 29.3999C52.06 29.3999 51.51 38.3999 47.09 46.9799" stroke="white" stroke-width="2" stroke-linecap="round" stroke-linejoin="round"/>
<path d="M53.17 1C44.98 1 38.34 7.63 38.34 15.82C38.34 22.21 42.39 27.66 48.06 29.74C49.66 30.33 51.38 30.65 53.17 30.65C54.96 30.65 56.54 30.36 58.08 29.81C63.85 27.79 67.99 22.29 67.99 15.82C67.99 7.63 61.36 1 53.17 1ZM57.49 14.9L50.15 24.8C50.02 24.98 49.73 24.85 49.79 24.63L51.61 17.32C51.64 17.19 51.54 17.07 51.41 17.07H49C48.83 17.07 48.74 16.88 48.84 16.74L56.18 6.84C56.31 6.66 56.6 6.79 56.54 7.01L54.72 14.32C54.69 14.45 54.79 14.57 54.92 14.57H57.33C57.5 14.57 57.59 14.76 57.49 14.9Z" fill="#FF0000"/>
</g>
<defs>
<clipPath id="clip0_400_533">
<rect width="67.99" height="66.11" fill="white"/>
</clipPath>
</defs>
</svg>
