<svg width="61" height="61" viewBox="0 0 61 61" fill="none" xmlns="http://www.w3.org/2000/svg">
<g clip-path="url(#clip0_400_498)">
<path d="M60.45 31.8699H54.45C54.12 31.8699 53.88 31.5599 53.96 31.2399L58.48 13.0699C58.61 12.5299 57.91 12.1999 57.58 12.6499L39.34 37.2799C39.09 37.6099 39.34 38.0899 39.75 38.0899H45.75C46.08 38.0899 46.32 38.3999 46.24 38.7199L41.72 56.8899C41.59 57.4299 42.29 57.7599 42.62 57.3099L60.86 32.6799C61.11 32.3499 60.86 31.8699 60.45 31.8699Z" fill="#ED0012"/>
<path d="M35.87 59.32C34.1 59.65 32.28 59.82 30.42 59.82C14.17 59.82 1 46.66 1 30.41C1 14.16 14.17 1 30.41 1C38.73 1 46.24 4.45 51.59 10" stroke="white" stroke-width="2" stroke-linecap="round" stroke-linejoin="round"/>
<path d="M30.41 33.5101C32.1221 33.5101 33.51 32.1221 33.51 30.4101C33.51 28.698 32.1221 27.3101 30.41 27.3101C28.6979 27.3101 27.31 28.698 27.31 30.4101C27.31 32.1221 28.6979 33.5101 30.41 33.5101Z" stroke="white" stroke-width="2" stroke-linecap="round" stroke-linejoin="round"/>
<path d="M30.41 1V7.31" stroke="white" stroke-width="2" stroke-linecap="round" stroke-linejoin="round"/>
<path d="M30.41 53.4299V59.7399" stroke="white" stroke-width="2" stroke-linecap="round" stroke-linejoin="round"/>
<path d="M7.34998 30.3701H1.03998" stroke="white" stroke-width="2" stroke-linecap="round" stroke-linejoin="round"/>
<path d="M14.1 14.0601L9.65002 9.6001" stroke="white" stroke-width="2" stroke-linecap="round" stroke-linejoin="round"/>
<path d="M27.84 28.34L18.25 18.75" stroke="white" stroke-width="2" stroke-linecap="round" stroke-linejoin="round"/>
<path d="M14.1 46.6799L9.65002 51.1399" stroke="white" stroke-width="2" stroke-linecap="round" stroke-linejoin="round"/>
</g>
<defs>
<clipPath id="clip0_400_498">
<rect width="60.95" height="60.82" fill="white"/>
</clipPath>
</defs>
</svg>
